<svg width="2257" height="700" viewBox="0 0 2257 700" fill="none" xmlns="http://www.w3.org/2000/svg">
<rect opacity="0.09" y="106" width="1199" height="594" rx="89" fill="#D9D9D9"/>
<path d="M458 411C458 447.522 447.999 483.347 429.083 514.589C410.167 545.83 383.057 571.296 350.694 588.223C318.331 605.149 281.951 612.892 245.501 610.609C209.05 608.327 173.92 596.107 143.922 575.275C113.924 554.443 90.2022 525.794 75.3309 492.437C60.4596 459.08 55.0062 422.287 59.5623 386.05C64.1184 349.814 78.5099 315.516 101.176 286.878C123.842 258.241 153.917 236.356 188.138 223.598L218.361 304.671C198.944 311.909 181.88 324.326 169.02 340.575C156.16 356.824 147.994 376.284 145.409 396.844C142.824 417.404 145.918 438.28 154.356 457.206C162.794 476.133 176.253 492.388 193.273 504.207C210.294 516.027 230.226 522.961 250.908 524.256C271.59 525.551 292.231 521.158 310.593 511.554C328.956 501.95 344.337 487.501 355.07 469.775C365.803 452.049 371.477 431.722 371.477 411H458Z" fill="url(#paint0_linear_126_75)"/>
<path d="M656.932 400.797C656.932 416.91 654.246 430.826 649.852 442.301H445.75C456.98 474.039 485.057 495.523 519.969 495.523C536.082 495.523 560.008 490.885 585.643 467.936L636.18 518.229C599.559 557.535 552.928 568.766 518.26 568.766C433.787 568.766 367.869 502.359 367.869 412.516C367.869 321.939 434.764 256.266 518.016 256.266C605.906 256.266 656.932 329.508 656.932 400.797ZM517.771 329.508C483.348 329.508 454.783 350.748 444.529 383.707H582.469C574.656 351.725 552.684 329.508 517.771 329.508ZM778.758 305.338C807.322 268.473 847.605 254.068 883.006 253.824L870.799 336.344C867.869 336.1 864.451 336.1 861.033 336.1C828.074 336.1 779.734 348.795 779.734 437.174V559H704.539V266.031H774.852L778.758 305.338ZM1016.31 563.883C967.234 563.883 941.6 528.482 941.6 460.855V339.273H902.537V270.914H911.814C933.299 270.914 946.482 256.754 946.482 233.805V207.438H1016.79V266.031H1075.39V339.273H1016.79V460.855C1016.79 480.387 1022.9 491.861 1041.7 491.861C1050.49 491.861 1062.45 489.42 1075.39 485.758V555.094C1060.5 559.977 1032.66 563.883 1016.31 563.883Z" fill="white"/>
<path d="M1544.93 400.797C1544.93 416.91 1542.25 430.826 1537.85 442.301H1333.75C1344.98 474.039 1373.06 495.523 1407.97 495.523C1424.08 495.523 1448.01 490.885 1473.64 467.936L1524.18 518.229C1487.56 557.535 1440.93 568.766 1406.26 568.766C1321.79 568.766 1255.87 502.359 1255.87 412.516C1255.87 321.939 1322.76 256.266 1406.02 256.266C1493.91 256.266 1544.93 329.508 1544.93 400.797ZM1405.77 329.508C1371.35 329.508 1342.78 350.748 1332.53 383.707H1470.47C1462.66 351.725 1440.68 329.508 1405.77 329.508ZM1811.04 156.168H1884.29V559H1815.93L1812.75 527.018C1790.29 554.117 1758.07 569.01 1719.25 569.01C1628.92 569.01 1576.67 489.664 1576.67 413.004C1576.67 327.066 1637.22 256.51 1719.98 256.51C1756.6 256.51 1788.34 269.938 1811.04 296.061V156.168ZM1732.19 493.814C1776.87 493.814 1811.04 460.123 1811.04 412.271C1811.04 362.223 1773.45 331.705 1732.19 331.705C1686.78 331.705 1651.87 368.814 1651.87 412.027C1651.87 453.043 1683.12 493.814 1732.19 493.814ZM1990.49 230.631C1967.05 230.631 1948.01 211.588 1948.01 188.15C1948.01 164.713 1967.05 145.67 1990.49 145.67C2013.93 145.67 2032.97 164.713 2032.97 188.15C2032.97 211.588 2013.93 230.631 1990.49 230.631ZM1952.89 559V266.031H2028.09V559H1952.89ZM2188 563.883C2138.93 563.883 2113.29 528.482 2113.29 460.855V339.273H2074.23V270.914H2083.51C2104.99 270.914 2118.17 256.754 2118.17 233.805V207.438H2188.49V266.031H2247.08V339.273H2188.49V460.855C2188.49 480.387 2194.59 491.861 2213.39 491.861C2222.18 491.861 2234.14 489.42 2247.08 485.758V555.094C2232.19 559.977 2204.36 563.883 2188 563.883Z" fill="url(#paint1_linear_126_75)"/>
<defs>
<linearGradient id="paint0_linear_126_75" x1="258" y1="211" x2="258" y2="611" gradientUnits="userSpaceOnUse">
<stop stop-color="#D9D9D9"/>
<stop offset="1" stop-color="#737373"/>
</linearGradient>
<linearGradient id="paint1_linear_126_75" x1="1749" y1="-376" x2="1748" y2="1076" gradientUnits="userSpaceOnUse">
<stop stop-color="white"/>
<stop offset="0.9999" stop-color="#FF2E00"/>
</linearGradient>
</defs>
</svg>
