<svg width="2142" height="1093" viewBox="0 0 2142 1093" fill="none" xmlns="http://www.w3.org/2000/svg">
<path d="M393.5 887.402C346 912.402 389.999 964.749 371.083 995.99C352.167 1027.23 325.057 1052.7 292.694 1069.62C260.331 1086.55 223.951 1094.29 187.501 1092.01C151.05 1089.73 115.92 1077.51 85.9219 1056.68C55.9236 1035.85 32.2022 1007.2 17.331 973.84C2.45969 940.483 -2.99366 903.69 1.56241 867.453C6.11848 831.216 20.51 796.919 43.1759 768.281C65.8419 739.644 95.9167 717.757 130.138 705L160.361 786.072C140.945 793.311 123.88 805.728 111.02 821.977C98.1597 838.225 89.994 857.686 87.409 878.246C84.8239 898.806 87.9181 919.683 96.3559 938.609C104.794 957.536 118.253 973.79 135.274 985.609C152.294 997.429 172.226 1004.36 192.908 1005.66C213.59 1006.95 234.231 1002.56 252.594 992.955C270.956 983.351 286.338 968.904 297.07 951.178C307.803 933.452 313.478 913.125 313.478 892.402L393.5 887.402Z" fill="url(#paint0_linear_138_23)"/>
<path d="M595.932 920.797C595.932 936.91 593.246 950.826 588.852 962.301H384.75C395.98 994.039 424.057 1015.52 458.969 1015.52C475.082 1015.52 499.008 1010.88 524.643 987.936L575.18 1038.23C538.559 1077.54 491.928 1088.77 457.26 1088.77C372.787 1088.77 306.869 1022.36 306.869 932.516C306.869 841.939 373.764 776.266 457.016 776.266C544.906 776.266 595.932 849.508 595.932 920.797ZM456.771 849.508C422.348 849.508 393.783 870.748 383.529 903.707H521.469C513.656 871.725 491.684 849.508 456.771 849.508ZM717.758 825.338C746.322 788.473 786.605 774.068 822.006 773.824L809.799 856.344C806.869 856.1 803.451 856.1 800.033 856.1C767.074 856.1 718.734 868.795 718.734 957.174V1079H643.539V786.031H713.852L717.758 825.338ZM955.307 1083.88C906.234 1083.88 880.6 1048.48 880.6 980.855V859.273H841.537V790.914H850.814C872.299 790.914 885.482 776.754 885.482 753.805V727.438H955.795V786.031H1014.39V859.273H955.795V980.855C955.795 1000.39 961.898 1011.86 980.697 1011.86C989.486 1011.86 1001.45 1009.42 1014.39 1005.76V1075.09C999.496 1079.98 971.664 1083.88 955.307 1083.88Z" fill="white"/>
<path d="M1148 1085V1040.5H1103V807H1148V762.5H1293V807H1338.5V863H1283V819H1158V896H1248V951.5H1158V1029H1283V984H1338.5V1040.5H1293V1085H1148ZM1398.9 1085V762.5H1543.9V807H1588.9V851H1634.4V996H1588.9V1040.5H1543.9V1085H1398.9ZM1453.9 1029H1534.4V984H1578.9V863H1534.4V819H1453.9V1029ZM1669.89 1085V1029H1714.89V819H1669.89V762.5H1814.89V819H1769.39V1029H1814.89V1085H1669.89ZM1965.46 1085V819H1930.46V863H1875.46V807H1920.46V762.5H2065.46V807H2110.96V863H2055.46V819H2020.46V1085H1965.46Z" fill="url(#paint1_linear_138_23)"/>
<rect x="791.5" y="45.5" width="489" height="489" rx="159.5" stroke="url(#paint2_linear_138_23)" stroke-width="91"/>
<path d="M970.373 237.645C965.989 224.497 978.336 211.91 991.567 216.041L1106.53 251.936C1122.29 256.857 1122.49 279.091 1106.82 284.296L1068.97 296.87C1063.97 298.53 1060.02 302.413 1058.28 307.383L1041.6 355.018C1036.24 370.313 1014.55 370.149 1009.42 354.775L970.373 237.645Z" fill="url(#paint3_linear_138_23)"/>
<defs>
<linearGradient id="paint0_linear_138_23" x1="200" y1="692.406" x2="200" y2="1092.41" gradientUnits="userSpaceOnUse">
<stop stop-color="#D9D9D9"/>
<stop offset="1" stop-color="#737373"/>
</linearGradient>
<linearGradient id="paint1_linear_138_23" x1="1608.03" y1="364.931" x2="1607.59" y2="1346.07" gradientUnits="userSpaceOnUse">
<stop stop-color="white"/>
<stop offset="0.679" stop-color="#FF2E00"/>
</linearGradient>
<linearGradient id="paint2_linear_138_23" x1="605" y1="-146" x2="1153" y2="414" gradientUnits="userSpaceOnUse">
<stop stop-color="white"/>
<stop offset="1" stop-color="#FF2E00"/>
</linearGradient>
<linearGradient id="paint3_linear_138_23" x1="959.87" y1="206.144" x2="1091.02" y2="334.807" gradientUnits="userSpaceOnUse">
<stop offset="1" stop-color="#FF2E00"/>
</linearGradient>
</defs>
</svg>
