<svg width="2142" height="1054" viewBox="0 0 2142 1054" fill="none" xmlns="http://www.w3.org/2000/svg">
<path d="M393.5 848.402C346 873.402 389.999 925.749 371.083 956.99C352.167 988.232 325.057 1013.7 292.694 1030.62C260.331 1047.55 223.951 1055.29 187.501 1053.01C151.05 1050.73 115.92 1038.51 85.9219 1017.68C55.9236 996.846 32.2022 968.197 17.331 934.84C2.45969 901.483 -2.99366 864.69 1.56241 828.453C6.11848 792.216 20.51 757.919 43.1759 729.281C65.8419 700.644 95.9167 678.757 130.138 666L160.361 747.072C140.945 754.311 123.88 766.728 111.02 782.977C98.1597 799.225 89.994 818.686 87.409 839.246C84.8239 859.806 87.9181 880.683 96.3559 899.609C104.794 918.536 118.253 934.79 135.274 946.609C152.294 958.429 172.226 965.363 192.908 966.658C213.59 967.953 234.231 963.559 252.594 953.955C270.956 944.351 286.338 929.904 297.07 912.178C307.803 894.452 313.478 874.125 313.478 853.402L393.5 848.402Z" fill="url(#paint0_linear_162_21)"/>
<path d="M595.932 881.797C595.932 897.91 593.246 911.826 588.852 923.301H384.75C395.98 955.039 424.057 976.523 458.969 976.523C475.082 976.523 499.008 971.885 524.643 948.936L575.18 999.229C538.559 1038.54 491.928 1049.77 457.26 1049.77C372.787 1049.77 306.869 983.359 306.869 893.516C306.869 802.939 373.764 737.266 457.016 737.266C544.906 737.266 595.932 810.508 595.932 881.797ZM456.771 810.508C422.348 810.508 393.783 831.748 383.529 864.707H521.469C513.656 832.725 491.684 810.508 456.771 810.508ZM717.758 786.338C746.322 749.473 786.605 735.068 822.006 734.824L809.799 817.344C806.869 817.1 803.451 817.1 800.033 817.1C767.074 817.1 718.734 829.795 718.734 918.174V1040H643.539V747.031H713.852L717.758 786.338ZM955.307 1044.88C906.234 1044.88 880.6 1009.48 880.6 941.855V820.273H841.537V751.914H850.814C872.299 751.914 885.482 737.754 885.482 714.805V688.438H955.795V747.031H1014.39V820.273H955.795V941.855C955.795 961.387 961.898 972.861 980.697 972.861C989.486 972.861 1001.45 970.42 1014.39 966.758V1036.09C999.496 1040.98 971.664 1044.88 955.307 1044.88Z" fill="white"/>
<path d="M1148 1046V1001.5H1103V768H1148V723.5H1293V768H1338.5V824H1283V780H1158V857H1248V912.5H1158V990H1283V945H1338.5V1001.5H1293V1046H1148ZM1398.9 1046V723.5H1543.9V768H1588.9V812H1634.4V957H1588.9V1001.5H1543.9V1046H1398.9ZM1453.9 990H1534.4V945H1578.9V824H1534.4V780H1453.9V990ZM1669.89 1046V990H1714.89V780H1669.89V723.5H1814.89V780H1769.39V990H1814.89V1046H1669.89ZM1965.46 1046V780H1930.46V824H1875.46V768H1920.46V723.5H2065.46V768H2110.96V824H2055.46V780H2020.46V1046H1965.46Z" fill="url(#paint1_linear_162_21)"/>
<rect x="828.5" y="45.5" width="489" height="489" rx="159.5" stroke="url(#paint2_linear_162_21)" stroke-width="91"/>
<path d="M1129.21 226.832H1017.79C1009 226.832 1001.88 233.958 1001.88 242.749V306.415C1001.88 315.206 1009 322.332 1017.79 322.332H1129.21C1138 322.332 1145.12 315.206 1145.12 306.415V242.749C1145.12 233.958 1138 226.832 1129.21 226.832Z" stroke="#FF2E00" stroke-width="25" stroke-linecap="round" stroke-linejoin="round"/>
<path d="M993 367H1152.17" stroke="#FF2E00" stroke-width="21" stroke-linecap="round" stroke-linejoin="round"/>
<defs>
<linearGradient id="paint0_linear_162_21" x1="200" y1="653.406" x2="200" y2="1053.41" gradientUnits="userSpaceOnUse">
<stop stop-color="#D9D9D9"/>
<stop offset="1" stop-color="#737373"/>
</linearGradient>
<linearGradient id="paint1_linear_162_21" x1="1608.03" y1="325.931" x2="1607.59" y2="1307.07" gradientUnits="userSpaceOnUse">
<stop stop-color="white"/>
<stop offset="0.679" stop-color="#FF2E00"/>
</linearGradient>
<linearGradient id="paint2_linear_162_21" x1="642" y1="-146" x2="1190" y2="414" gradientUnits="userSpaceOnUse">
<stop stop-color="white"/>
<stop offset="1" stop-color="#FF2E00"/>
</linearGradient>
</defs>
</svg>
